:FULLY-SPECIFIED
:FORCE-ALL-JOINTS-BE-3DOF
:DEGREES
2956
root -6.12849 13.0045 -28.5863 163.947 -67.7897 -160.601
lfemur -68.3744 41.0848 -7.09607
ltibia 77.1058 -0 0
lfoot -4.64844 -2.8828 0.00928423
ltoes -35.7162 0 0
rfemur -35.4322 -18.0269 23.1963
rtibia 91.4063 -0 0
rfoot -40.3428 -31.7433 -0.00194902
rtoes -12.0178 0 0
lowerback 16.7204 5.183 0.828717
upperback -4.18495 7.34563 1.44361
thorax -14.2063 3.38707 -0.948152
lowerneck -3.00143 9.55588 1.47701
upperneck 7.14575 12.6087 0.868484
head 2.83246 6.31681 0.459097
lclavicle 1.3759e-13 1.23246e-14 0
lhumerus 5.95527 15.4445 80.9788
lradius 90.0993 -0 0
lwrist -16.5498 0 0
lhand -39.088 30.6049 -0.000601258
lfingers 7.12502 -0 0
lthumb -12.0885 60.2348 -0.00040028
rclavicle 1.3759e-13 1.23246e-14 0
rhumerus -51.0675 49.4101 -103.524
rradius 110.575 -0 0
rwrist -78.1865 0 0
rhand 2.62222 -24.9036 -0.00410304
rfingers 7.12502 -0 0
rthumb 28.0971 -52.796 0.00401656
2957
root -6.13334 12.9953 -28.5755 164.085 -67.8526 -160.697
lfemur -68.4077 40.8624 -7.13087
ltibia 77.0288 -0 0
lfoot -4.4734 -2.78472 0.00705184
ltoes -35.6587 0 0
rfemur -35.5622 -17.9865 23.2294
rtibia 91.4667 -0 0
rfoot -40.3099 -31.853 -0.00148039
rtoes -11.8951 0 0
lowerback 16.7579 5.16444 0.780975
upperback -4.16149 7.30971 1.44154
thorax -14.2078 3.37433 -0.916629
lowerneck -3.00899 9.55811 1.44519
upperneck 7.03013 12.6203 0.796948
head 2.79708 6.32023 0.438326
lclavicle 1.3759e-13 1.23246e-14 0
lhumerus 5.97664 15.5514 80.8239
lradius 90.0281 -0 0
lwrist -16.393 0 0
lhand -39.0119 30.5903 -0.000456692
lfingers 7.12502 -0 0
lthumb -12.0152 60.2248 -0.000304037
rclavicle 1.3759e-13 1.23246e-14 0
rhumerus -50.6184 49.3003 -103.072
rradius 110.424 -0 0
rwrist -77.9182 0 0
rhand 2.32497 -24.8781 -0.00311641
rfingers 7.12502 -0 0
rthumb 27.8135 -52.8222 0.00305073
2958
root -6.13763 12.9873 -28.5661 164.205 -67.9069 -160.78
lfemur -68.4363 40.6702 -7.16071
ltibia 76.9622 -0 0
lfoot -4.32218 -2.69999 0.00488194
ltoes -35.609 0 0
rfemur -35.6745 -17.9516 23.2579
rtibia 91.519 -0 0
rfoot -40.2815 -31.9477 -0.00102488
rtoes -11.7891 0 0
lowerback 16.7902 5.14842 0.739719
upperback -4.14121 7.27868 1.43975
thorax -14.2091 3.36333 -0.889395
lowerneck -3.01553 9.56003 1.41771
upperneck 6.93023 12.6301 0.735124
head 2.76651 6.32317 0.420379
lclavicle 1.3759e-13 1.23246e-14 0
lhumerus 5.99488 15.6438 80.69
lradius 89.9666 -0 0
lwrist -16.2574 0 0
lhand -38.9462 30.5777 -0.000316168
lfingers 7.12502 -0 0
lthumb -11.9518 60.216 -0.000210485
rclavicle 1.3759e-13 1.23246e-14 0
rhumerus -50.2324 49.2036 -102.684
rradius 110.294 -0 0
rwrist -77.6864 0 0
rhand 2.06816 -24.856 -0.00215743
rfingers 7.12502 -0 0
rthumb 27.5685 -52.8448 0.00211196
2959
root -6.14122 12.9807 -28.5583 164.303 -67.9513 -160.849
lfemur -68.4596 40.5128 -7.18499
ltibia 76.9076 -0 0
lfoot -4.19835 -2.63062 0.00293847
ltoes -35.5683 0 0
rfemur -35.7665 -17.923 23.2812
rtibia 91.5618 -0 0
rfoot -40.2583 -32.0253 -0.000616886
rtoes -11.7024 0 0
lowerback 16.8168 5.13533 0.705929
upperback -4.12461 7.25327 1.43827
thorax -14.2101 3.35432 -0.867093
lowerneck -3.02088 9.56161 1.3952
upperneck 6.84841 12.6381 0.684481
head 2.74148 6.32557 0.405682
lclavicle 1.3759e-13 1.23246e-14 0
lhumerus 6.00965 15.7195 80.5804
lradius 89.9162 -0 0
lwrist -16.1465 0 0
lhand -38.8924 30.5673 -0.000190306
lfingers 7.12502 -0 0
lthumb -11.8999 60.2089 -0.000126694
rclavicle 1.3759e-13 1.23246e-14 0
rhumerus -49.9175 49.1231 -102.367
rradius 110.188 -0 0
rwrist -77.4966 0 0
rhand 1.85786 -24.838 -0.00129855
rfingers 7.12502 -0 0
rthumb 27.3679 -52.8634 0.00127119
2960
root -6.14395 12.9757 -28.5525 164.377 -67.9846 -160.901
lfemur -68.477 40.3948 -7.2031
ltibia 76.8667 -0 0
lfoot -4.10548 -2.57858 0.00138248
ltoes -35.5378 0 0
rfemur -35.8354 -17.9015 23.2987
rtibia 91.5939 -0 0
rfoot -40.2409 -32.0835 -0.000290232
rtoes -11.6373 0 0
lowerback 16.8367 5.12552 0.680583
upperback -4.11216 7.23422 1.43716
thorax -14.2109 3.34756 -0.850367
lowerneck -3.02489 9.56278 1.37832
upperneck 6.78703 12.6441 0.646491
head 2.72271 6.32737 0.394658
lclavicle 1.3759e-13 1.23246e-14 0
lhumerus 6.02064 15.7763 80.4981
lradius 89.8785 -0 0
lwrist -16.0632 0 0
lhand -38.8521 30.5596 -8.95353e-05
lfingers 7.12502 -0 0
lthumb -11.861 60.2035 -5.96071e-05
rclavicle 1.3759e-13 1.23246e-14 0
rhumerus -49.6822 49.062 -102.13
rradius 110.108 -0 0
rwrist -77.3543 0 0
rhand 1.70013 -24.8244 -0.000610929
rfingers 7.12502 -0 0
rthumb 27.2174 -52.8773 0.000598058
2961
root -6.1457 12.9725 -28.5488 164.424 -68.0055 -160.934
lfemur -68.4878 40.3206 -7.21444
ltibia 76.841 -0 0
lfoot -4.04714 -2.5459 0.000361867
ltoes -35.5187 0 0
rfemur -35.8787 -17.888 23.3096
rtibia 91.614 -0 0
rfoot -40.2299 -32.1201 -7.59691e-05
rtoes -11.5964 0 0
lowerback 16.8492 5.11936 0.664659
upperback -4.10434 7.22224 1.43645
thorax -14.2114 3.34331 -0.839859
lowerneck -3.02742 9.56352 1.36772
upperneck 6.74848 12.6478 0.622621
head 2.71091 6.3285 0.387732
lclavicle 1.3759e-13 1.23246e-14 0
lhumerus 6.0275 15.812 80.4464
lradius 89.8547 -0 0
lwrist -16.0109 0 0
lhand -38.8267 30.5547 -2.34362e-05
lfingers 7.12502 -0 0
lthumb -11.8366 60.2002 -1.56023e-05
rclavicle 1.3759e-13 1.23246e-14 0
rhumerus -49.5347 49.0233 -101.981
rradius 110.057 -0 0
rwrist -77.2648 0 0
rhand 1.60105 -24.8159 -0.00015991
rfingers 7.12502 -0 0
rthumb 27.1229 -52.886 0.000156542
2962
root -5.89301 13.1475 -28.7611 164.44 -68.0127 -160.945
lfemur -68.4916 40.2949 -7.21837
ltibia 76.8321 0 0
lfoot -4.0269 -2.53456 0
ltoes -35.512 0 0
rfemur -35.8937 -17.8833 23.3134
rtibia 91.621 0 0
rfoot -40.2261 -32.1328 0
rtoes -11.5822 0 0
lowerback 16.8535 5.11722 0.659134
upperback -4.10163 7.21809 1.43621
thorax -14.2116 3.34184 -0.836214
lowerneck -3.02829 9.56378 1.36404
upperneck 6.7351 12.6491 0.614339
head 2.70682 6.32889 0.385329
lclavicle -2.03257e-14 -9.93923e-15 0
lhumerus 6.02987 15.8244 80.4285
lradius 89.8465 0 0
lwrist -15.9928 0 0
lhand -38.8179 30.553 0
lfingers 7.12502 0 0
lthumb -11.8281 60.199 0
rclavicle -2.03257e-14 -9.93923e-15 0
rhumerus -49.4836 49.0098 -101.93
rradius 110.04 0 0
rwrist -77.2338 0 0
rhand 1.56667 -24.813 0
rfingers 7.12502 0 0
rthumb 27.0901 -52.889 0
2963
root -5.85421 13.1749 -28.7928 164.14 -68.4831 -160.547
lfemur -68.1749 39.5332 -6.92109
ltibia 75.9747 -0 0
lfoot -3.63021 -2.31588 0.0262677
ltoes -35.4254 0 0
rfemur -35.9413 -17.6572 23.5753
rtibia 91.3146 -0 0
rfoot -40.0979 -32.2601 -0.00491723
rtoes -11.3515 0 0
lowerback 16.8501 5.1303 0.66712
upperback -4.06584 7.23122 1.40261
thorax -14.1617 3.3467 -0.878435
lowerneck -2.98545 9.39934 1.25047
upperneck 6.5677 12.435 0.624246
head 2.641 6.22184 0.397423
lclavicle -2.03257e-14 -9.93923e-15 0
lhumerus 6.15518 15.7186 80.3746
lradius 89.7582 -0 0
lwrist -15.6173 0 0
lhand -38.6198 30.5769 0.00142788
lfingers 7.12502 -0 0
lthumb -11.637 60.2306 0.00182213
rclavicle -2.03257e-14 -9.93923e-15 0
rhumerus -47.722 48.4935 -100.522
rradius 109.769 -0 0
rwrist -77.0425 0 0
rhand 1.15344 -24.914 0.0126255
rfingers 7.12502 -0 0
rthumb 26.6931 -53.0321 0.0171821
2964
root -5.81064 13.2065 -28.8265 163.731 -69.0875 -160.012
lfemur -67.7797 38.5507 -6.55099
ltibia 74.8708 -0 0
lfoot -3.11939 -2.0341 0.057853
ltoes -35.3139 0 0
rfemur -36.001 -17.3657 23.9116
rtibia 90.9201 -0 0
rfoot -39.9328 -32.4241 -0.0108279
rtoes -11.0546 0 0
lowerback 16.8458 5.14713 0.6774
upperback -4.01978 7.24814 1.35937
thorax -14.0975 3.35302 -0.932782
lowerneck -2.92985 9.18777 1.10416
upperneck 6.35233 12.1593 0.637931
head 2.55624 6.08405 0.41317
lclavicle -2.03257e-14 -9.93923e-15 0
lhumerus 6.31656 15.5826 80.305
lradius 89.6446 -0 0
lwrist -15.1338 0 0
lhand -38.3648 30.6077 0.00314428
lfingers 7.12502 -0 0
lthumb -11.3909 60.2714 0.00401243
rclavicle -2.03257e-14 -9.93923e-15 0
rhumerus -45.5097 47.7878 -98.7659
rradius 109.42 -0 0
rwrist -76.7962 0 0
rhand 0.621428 -25.0441 0.0278062
rfingers 7.12502 -0 0
rthumb 26.1821 -53.2164 0.0378415
2965
root -5.76298 13.2416 -28.862 163.206 -69.8086 -159.335
lfemur -67.3242 37.3728 -6.12588
ltibia 73.5502 -0 0
lfoot -2.50803 -1.69662 0.0923393
ltoes -35.1805 0 0
rfemur -36.0699 -17.0166 24.3129
rtibia 90.4481 -0 0
rfoot -39.7353 -32.6202 -0.017279
rtoes -10.6994 0 0
lowerback 16.8407 5.16728 0.689698
upperback -3.96469 7.26844 1.30766
thorax -14.0207 3.36065 -0.997796
lowerneck -2.86264 8.93482 0.928957
upperneck 6.09487 11.8296 0.655676
head 2.45482 5.91923 0.432274
lclavicle -2.03257e-14 -9.93923e-15 0
lhumerus 6.50972 15.4201 80.2211
lradius 89.5086 -0 0
lwrist -14.5554 0 0
lhand -38.0598 30.6446 0.00501763
lfingers 7.12502 -0 0
lthumb -11.0965 60.3201 0.00640301
rclavicle -2.03257e-14 -9.93923e-15 0
rhumerus -42.9457 46.8857 -96.7511
rradius 109.003 -0 0
rwrist -76.5016 0 0
rhand -0.0151261 -25.2 0.0443803
rfingers 7.12502 -0 0
rthumb 25.5705 -53.4372 0.060397
2966
root -5.71192 13.2797 -28.8987 162.551 -70.6293 -158.508
lfemur -66.8259 36.0247 -5.66256
ltibia 72.0423 -0 0
lfoot -1.80975 -1.31086 0.127309
ltoes -35.0282 0 0
rfemur -36.1452 -16.6175 24.7697
rtibia 89.9092 -0 0
rfoot -39.5098 -32.8442 -0.0238179
rtoes -10.2937 0 0
lowerback 16.8348 5.19028 0.703737
upperback -3.90181 7.29168 1.24863
thorax -13.933 3.36948 -1.07202
lowerneck -2.78501 8.64626 0.728686
upperneck 5.80114 11.4533 0.677759
head 2.33899 5.73108 0.454439
lclavicle -2.03257e-14 -9.93923e-15 0
lhumerus 6.73039 15.235 80.1248
lradius 89.3534 -0 0
lwrist -13.8949 0 0
lhand -37.7114 30.6867 0.00691651
lfingers 7.12502 -0 0
lthumb -10.7603 60.3758 0.00882615
rclavicle -2.03257e-14 -9.93923e-15 0
rhumerus -40.1289 45.7836 -94.5657
rradius 108.527 -0 0
rwrist -76.1652 0 0
rhand -0.74199 -25.3781 0.0611858
rfingers 7.12502 -0 0
rthumb 24.8721 -53.6896 0.0832672
2967
root -5.65814 13.3204 -28.9365 161.752 -71.5317 -157.52
lfemur -66.3003 34.5321 -5.17624
ltibia 70.3767 -0 0
lfoot -1.0382 -0.884295 0.160467
ltoes -34.86 0 0
rfemur -36.2245 -16.1759 25.2725
rtibia 89.314 -0 0
rfoot -39.2606 -33.0917 -0.0300157
rtoes -9.84566 0 0
lowerback 16.8283 5.21568 0.719243
upperback -3.83237 7.31742 1.18345
thorax -13.8361 3.37936 -1.15398
lowerneck -2.69814 8.32784 0.507188
upperneck 5.47697 11.0377 0.704403
head 2.211 5.52331 0.479358
lclavicle -2.03257e-14 -9.93923e-15 0
lhumerus 6.97428 15.0308 80.0177
lradius 89.182 -0 0
lwrist -13.1654 0 0
lhand -37.3267 30.7333 0.00871634
lfingers 7.12502 -0 0
lthumb -10.389 60.4374 0.0111229
rclavicle -2.03257e-14 -9.93923e-15 0
rhumerus -37.1531 44.4836 -92.2933
rradius 108.001 -0 0
rwrist -75.7935 0 0
rhand -1.54492 -25.5752 0.0771198
rfingers 7.12502 -0 0
rthumb 24.1006 -53.9686 0.104951
2968
root -5.60233 13.3629 -28.9748 160.789 -72.4981 -156.354
lfemur -65.7614 32.9207 -4.68016
ltibia 68.583 -0 0
lfoot -0.207041 -0.424467 0.189748
ltoes -34.6788 0 0
rfemur -36.3051 -15.6997 25.8121
rtibia 88.673 -0 0
rfoot -38.9923 -33.3582 -0.0354866
rtoes -9.36315 0 0
lowerback 16.8213 5.24305 0.735939
upperback -3.75762 7.34523 1.11329
thorax -13.7318 3.39015 -1.24224
lowerneck -2.60328 7.98529 0.268304
upperneck 5.12815 10.5904 0.73573
head 2.07312 5.29961 0.506705
lclavicle -2.03257e-14 -9.93923e-15 0
lhumerus 7.23712 14.8115 79.9014
lradius 88.9973 -0 0
lwrist -12.3798 0 0
lhand -36.9123 30.7834 0.0103052
lfingers 7.12502 -0 0
lthumb -9.98915 60.5036 0.0131503
rclavicle -2.03257e-14 -9.93923e-15 0
rhumerus -34.1034 42.9949 -90.009
rradius 107.434 -0 0
rwrist -75.3933 0 0
rhand -2.40968 -25.7876 0.0911897
rfingers 7.12502 -0 0
rthumb 23.2696 -54.2695 0.124099
